<mxfile host="app.diagrams.net" agent="Mozilla/5.0 (X11; Linux x86_64; rv:140.0) Gecko/20100101 Firefox/140.0" version="27.2.0">
  <diagram name="Page-1" id="gckLhu01cpKmNA-3zGGQ">
    <mxGraphModel dx="800" dy="510" grid="1" gridSize="10" guides="1" tooltips="1" connect="1" arrows="1" fold="1" page="1" pageScale="1" pageWidth="850" pageHeight="1100" math="0" shadow="0">
      <root>
        <mxCell id="0" />
        <mxCell id="1" parent="0" />
        <mxCell id="T0gDz0qVHnPzca4S61PJ-1" value="Memory" style="rounded=0;whiteSpace=wrap;html=1;fillColor=#e1d5e7;strokeColor=#9673a6;" vertex="1" parent="1">
          <mxGeometry x="240" y="250" width="240" height="30" as="geometry" />
        </mxCell>
        <mxCell id="T0gDz0qVHnPzca4S61PJ-2" value="Address" style="rounded=0;whiteSpace=wrap;html=1;fillColor=#ffe6cc;strokeColor=#d79b00;" vertex="1" parent="1">
          <mxGeometry x="240" y="280" width="80" height="30" as="geometry" />
        </mxCell>
        <mxCell id="T0gDz0qVHnPzca4S61PJ-3" value="Value" style="rounded=0;whiteSpace=wrap;html=1;fillColor=#fff2cc;strokeColor=#d6b656;" vertex="1" parent="1">
          <mxGeometry x="320" y="280" width="80" height="30" as="geometry" />
        </mxCell>
        <mxCell id="T0gDz0qVHnPzca4S61PJ-4" value="&lt;div&gt;Variable&amp;nbsp;&lt;/div&gt;&lt;div&gt;name&lt;/div&gt;" style="rounded=0;whiteSpace=wrap;html=1;fillColor=#f5f5f5;fontColor=#333333;strokeColor=#666666;dashed=1;" vertex="1" parent="1">
          <mxGeometry x="400" y="280" width="80" height="30" as="geometry" />
        </mxCell>
        <mxCell id="T0gDz0qVHnPzca4S61PJ-5" value="..." style="rounded=0;whiteSpace=wrap;html=1;fillColor=#f5f5f5;fontColor=#333333;strokeColor=#666666;" vertex="1" parent="1">
          <mxGeometry x="240" y="310" width="160" height="60" as="geometry" />
        </mxCell>
        <mxCell id="T0gDz0qVHnPzca4S61PJ-6" value="0x00fa000" style="rounded=0;whiteSpace=wrap;html=1;fillColor=#ffe6cc;strokeColor=#d79b00;" vertex="1" parent="1">
          <mxGeometry x="240" y="370" width="80" height="40" as="geometry" />
        </mxCell>
        <mxCell id="T0gDz0qVHnPzca4S61PJ-7" value="0x00fed80" style="rounded=0;whiteSpace=wrap;html=1;fillColor=#fff2cc;strokeColor=#d6b656;" vertex="1" parent="1">
          <mxGeometry x="320" y="370" width="80" height="40" as="geometry" />
        </mxCell>
        <mxCell id="T0gDz0qVHnPzca4S61PJ-35" style="edgeStyle=orthogonalEdgeStyle;rounded=0;orthogonalLoop=1;jettySize=auto;html=1;exitX=1;exitY=0.5;exitDx=0;exitDy=0;entryX=1;entryY=0;entryDx=0;entryDy=0;" edge="1" parent="1" source="T0gDz0qVHnPzca4S61PJ-8" target="T0gDz0qVHnPzca4S61PJ-13">
          <mxGeometry relative="1" as="geometry">
            <Array as="points">
              <mxPoint x="490" y="390" />
              <mxPoint x="490" y="470" />
            </Array>
          </mxGeometry>
        </mxCell>
        <mxCell id="T0gDz0qVHnPzca4S61PJ-8" value="numbers" style="rounded=0;whiteSpace=wrap;html=1;fillColor=#f5f5f5;fontColor=#333333;strokeColor=#666666;dashed=1;" vertex="1" parent="1">
          <mxGeometry x="400" y="370" width="80" height="40" as="geometry" />
        </mxCell>
        <mxCell id="T0gDz0qVHnPzca4S61PJ-9" value="..." style="rounded=0;whiteSpace=wrap;html=1;fillColor=#f5f5f5;fontColor=#333333;strokeColor=#666666;" vertex="1" parent="1">
          <mxGeometry x="240" y="410" width="160" height="60" as="geometry" />
        </mxCell>
        <mxCell id="T0gDz0qVHnPzca4S61PJ-10" value="0x00fed80" style="rounded=0;whiteSpace=wrap;html=1;fillColor=#ffe6cc;strokeColor=#d79b00;" vertex="1" parent="1">
          <mxGeometry x="240" y="470" width="80" height="40" as="geometry" />
        </mxCell>
        <mxCell id="T0gDz0qVHnPzca4S61PJ-11" value="0.04" style="rounded=0;whiteSpace=wrap;html=1;fillColor=#fff2cc;strokeColor=#d6b656;" vertex="1" parent="1">
          <mxGeometry x="320" y="470" width="80" height="40" as="geometry" />
        </mxCell>
        <mxCell id="T0gDz0qVHnPzca4S61PJ-13" value="numbers[0]" style="rounded=0;whiteSpace=wrap;html=1;fillColor=#f5f5f5;fontColor=#333333;strokeColor=#666666;dashed=1;" vertex="1" parent="1">
          <mxGeometry x="400" y="470" width="80" height="40" as="geometry" />
        </mxCell>
        <mxCell id="T0gDz0qVHnPzca4S61PJ-23" value="0x00fed84" style="rounded=0;whiteSpace=wrap;html=1;fillColor=#ffe6cc;strokeColor=#d79b00;" vertex="1" parent="1">
          <mxGeometry x="240" y="510" width="80" height="40" as="geometry" />
        </mxCell>
        <mxCell id="T0gDz0qVHnPzca4S61PJ-24" value="0.68" style="rounded=0;whiteSpace=wrap;html=1;fillColor=#fff2cc;strokeColor=#d6b656;" vertex="1" parent="1">
          <mxGeometry x="320" y="510" width="80" height="40" as="geometry" />
        </mxCell>
        <mxCell id="T0gDz0qVHnPzca4S61PJ-25" value="numbers[1]" style="rounded=0;whiteSpace=wrap;html=1;fillColor=#f5f5f5;fontColor=#333333;strokeColor=#666666;dashed=1;" vertex="1" parent="1">
          <mxGeometry x="400" y="510" width="80" height="40" as="geometry" />
        </mxCell>
        <mxCell id="T0gDz0qVHnPzca4S61PJ-26" value="&lt;div&gt;0x00fed88&lt;/div&gt;" style="rounded=0;whiteSpace=wrap;html=1;fillColor=#ffe6cc;strokeColor=#d79b00;" vertex="1" parent="1">
          <mxGeometry x="240" y="550" width="80" height="40" as="geometry" />
        </mxCell>
        <mxCell id="T0gDz0qVHnPzca4S61PJ-27" value="0.44" style="rounded=0;whiteSpace=wrap;html=1;fillColor=#fff2cc;strokeColor=#d6b656;" vertex="1" parent="1">
          <mxGeometry x="320" y="550" width="80" height="40" as="geometry" />
        </mxCell>
        <mxCell id="T0gDz0qVHnPzca4S61PJ-28" value="numbers[2]" style="rounded=0;whiteSpace=wrap;html=1;fillColor=#f5f5f5;fontColor=#333333;strokeColor=#666666;dashed=1;" vertex="1" parent="1">
          <mxGeometry x="400" y="550" width="80" height="40" as="geometry" />
        </mxCell>
        <mxCell id="T0gDz0qVHnPzca4S61PJ-29" value="..." style="rounded=0;whiteSpace=wrap;html=1;fillColor=#ffe6cc;strokeColor=#d79b00;" vertex="1" parent="1">
          <mxGeometry x="240" y="590" width="80" height="20" as="geometry" />
        </mxCell>
        <mxCell id="T0gDz0qVHnPzca4S61PJ-30" value="0x00ffaa00" style="rounded=0;whiteSpace=wrap;html=1;fillColor=#ffe6cc;strokeColor=#d79b00;" vertex="1" parent="1">
          <mxGeometry x="240" y="610" width="80" height="40" as="geometry" />
        </mxCell>
        <mxCell id="T0gDz0qVHnPzca4S61PJ-31" value="0.91" style="rounded=0;whiteSpace=wrap;html=1;fillColor=#fff2cc;strokeColor=#d6b656;" vertex="1" parent="1">
          <mxGeometry x="320" y="610" width="80" height="40" as="geometry" />
        </mxCell>
        <mxCell id="T0gDz0qVHnPzca4S61PJ-32" value="numbers[n]" style="rounded=0;whiteSpace=wrap;html=1;fillColor=#f5f5f5;fontColor=#333333;strokeColor=#666666;dashed=1;" vertex="1" parent="1">
          <mxGeometry x="400" y="610" width="80" height="40" as="geometry" />
        </mxCell>
        <mxCell id="T0gDz0qVHnPzca4S61PJ-33" value="..." style="rounded=0;whiteSpace=wrap;html=1;fillColor=#fff2cc;strokeColor=#d6b656;" vertex="1" parent="1">
          <mxGeometry x="320" y="590" width="80" height="20" as="geometry" />
        </mxCell>
        <mxCell id="T0gDz0qVHnPzca4S61PJ-34" value="..." style="rounded=0;whiteSpace=wrap;html=1;fillColor=#f5f5f5;fontColor=#333333;strokeColor=#666666;dashed=1;" vertex="1" parent="1">
          <mxGeometry x="400" y="590" width="80" height="20" as="geometry" />
        </mxCell>
        <mxCell id="T0gDz0qVHnPzca4S61PJ-36" value="" style="endArrow=classic;startArrow=classic;html=1;rounded=0;" edge="1" parent="1">
          <mxGeometry width="50" height="50" relative="1" as="geometry">
            <mxPoint x="510" y="650" as="sourcePoint" />
            <mxPoint x="510" y="470" as="targetPoint" />
          </mxGeometry>
        </mxCell>
        <mxCell id="T0gDz0qVHnPzca4S61PJ-37" value="sizeof(float) * n" style="text;html=1;align=center;verticalAlign=middle;resizable=0;points=[];autosize=1;strokeColor=none;fillColor=none;" vertex="1" parent="1">
          <mxGeometry x="520" y="560" width="100" height="30" as="geometry" />
        </mxCell>
        <mxCell id="T0gDz0qVHnPzca4S61PJ-38" value="" style="shape=curlyBracket;whiteSpace=wrap;html=1;rounded=1;labelPosition=left;verticalLabelPosition=middle;align=right;verticalAlign=middle;" vertex="1" parent="1">
          <mxGeometry x="210" y="310" width="20" height="140" as="geometry" />
        </mxCell>
        <mxCell id="T0gDz0qVHnPzca4S61PJ-39" value="&lt;div&gt;Stack&lt;/div&gt;" style="text;html=1;align=center;verticalAlign=middle;resizable=0;points=[];autosize=1;strokeColor=none;fillColor=none;" vertex="1" parent="1">
          <mxGeometry x="160" y="365" width="50" height="30" as="geometry" />
        </mxCell>
        <mxCell id="T0gDz0qVHnPzca4S61PJ-40" value="" style="shape=curlyBracket;whiteSpace=wrap;html=1;rounded=1;labelPosition=left;verticalLabelPosition=middle;align=right;verticalAlign=middle;" vertex="1" parent="1">
          <mxGeometry x="210" y="450" width="20" height="260" as="geometry" />
        </mxCell>
        <mxCell id="T0gDz0qVHnPzca4S61PJ-41" value="..." style="rounded=0;whiteSpace=wrap;html=1;fillColor=#f5f5f5;fontColor=#333333;strokeColor=#666666;" vertex="1" parent="1">
          <mxGeometry x="240" y="650" width="160" height="60" as="geometry" />
        </mxCell>
        <mxCell id="T0gDz0qVHnPzca4S61PJ-42" value="Heap" style="text;html=1;align=center;verticalAlign=middle;resizable=0;points=[];autosize=1;strokeColor=none;fillColor=none;" vertex="1" parent="1">
          <mxGeometry x="160" y="565" width="50" height="30" as="geometry" />
        </mxCell>
        <mxCell id="T0gDz0qVHnPzca4S61PJ-43" value="..." style="rounded=0;whiteSpace=wrap;html=1;fillColor=#f5f5f5;fontColor=#333333;strokeColor=default;dashed=1;" vertex="1" parent="1">
          <mxGeometry x="400" y="310" width="80" height="60" as="geometry" />
        </mxCell>
        <mxCell id="T0gDz0qVHnPzca4S61PJ-44" value="..." style="rounded=0;whiteSpace=wrap;html=1;fillColor=#f5f5f5;fontColor=#333333;strokeColor=default;dashed=1;" vertex="1" parent="1">
          <mxGeometry x="400" y="410" width="80" height="60" as="geometry" />
        </mxCell>
        <mxCell id="T0gDz0qVHnPzca4S61PJ-45" value="..." style="rounded=0;whiteSpace=wrap;html=1;fillColor=#f5f5f5;fontColor=#333333;strokeColor=default;dashed=1;" vertex="1" parent="1">
          <mxGeometry x="400" y="650" width="80" height="60" as="geometry" />
        </mxCell>
      </root>
    </mxGraphModel>
  </diagram>
</mxfile>
